<?xml version="1.0" standalone="no"?>
<!DOCTYPE svg PUBLIC "-//W3C//DTD SVG 20010904//EN"
 "http://www.w3.org/TR/2001/REC-SVG-20010904/DTD/svg10.dtd">
<svg version="1.0" xmlns="http://www.w3.org/2000/svg"
 width="700.000000pt" height="700.000000pt" viewBox="0 0 700.000000 700.000000"
 preserveAspectRatio="xMidYMid meet">

<g transform="translate(0.000000,700.000000) scale(0.100000,-0.100000)"
fill="#6E4E9D" stroke="none">
<path d="M3155 6863 c-79 -7 -273 -46 -426 -84 -478 -120 -867 -307 -1239
-595 -143 -111 -461 -425 -570 -563 -206 -262 -398 -602 -510 -903 -351 -949
-252 -2013 268 -2877 384 -638 967 -1126 1665 -1395 203 -79 469 -149 689
-182 236 -35 876 -28 1093 12 364 68 788 229 1126 430 l110 65 102 -88 c182
-158 313 -249 462 -323 258 -128 474 -160 764 -114 l42 7 -89 37 c-247 103
-409 229 -533 411 -55 82 -131 245 -175 376 -42 124 -45 113 59 236 284 338
430 567 584 913 178 403 257 768 270 1249 9 355 -16 599 -94 900 -212 827
-724 1530 -1451 1994 -109 69 -360 199 -493 255 -237 99 -539 183 -751 210
-233 29 -728 45 -903 29z"/>
</g>
</svg>
